<svg width="57" height="41" viewBox="0 0 57 41" fill="none" xmlns="http://www.w3.org/2000/svg">
<rect x="0.25" y="0.25" width="56.5" height="40.5" rx="1.75" fill="white" stroke="#F5F5F5" stroke-width="0.5"/>
<mask id="mask0_18_46" style="mask-type:alpha" maskUnits="userSpaceOnUse" x="0" y="0" width="57" height="41">
<rect x="0.25" y="0.25" width="56.5" height="40.5" rx="1.75" fill="white" stroke="white" stroke-width="0.5"/>
</mask>
<g mask="url(#mask0_18_46)">
<rect x="40.7144" width="16.2857" height="41" fill="#FF3131"/>
<path fill-rule="evenodd" clip-rule="evenodd" d="M0 41H16.2857V0H0V41Z" fill="#FF3131"/>
<path fill-rule="evenodd" clip-rule="evenodd" d="M31.9931 19.7158C31.7604 19.9501 31.3653 19.7398 31.4296 19.416L32.5714 13.6667L29.8571 15.0333L28.5 10.9333L27.1429 15.0333L24.4286 13.6667L25.5704 19.416C25.6347 19.7398 25.2396 19.9501 25.0069 19.7158L23.308 18.0049C23.1776 17.8736 22.9653 17.8736 22.8349 18.0049L21.7143 19.1333L19 17.7667L20.3571 20.5L19.2332 21.6318C19.1042 21.7618 19.1042 21.9716 19.2332 22.1016L23.0714 25.9667H27.1429L27.8214 30.0667H29.1786L29.8571 25.9667H33.9286L37.7668 22.1016C37.8958 21.9716 37.8958 21.7618 37.7668 21.6318L36.6429 20.5L38 17.7667L35.2857 19.1333L34.1651 18.0049C34.0347 17.8736 33.8224 17.8736 33.692 18.0049L31.9931 19.7158Z" fill="#FF3131"/>
</g>
</svg>
